<svg id="Capa_1" data-name="Capa 1" xmlns="http://www.w3.org/2000/svg" viewBox="0 0 611 593"><defs><style>.cls-1{fill:#fff;}</style></defs><title>qb-icon</title><path class="cls-1" d="M603.49,281.86c-6.3-79.87-71-144.57-150.87-150.87a164.26,164.26,0,0,0-108.11,29.48L352.18,37.7H352c0-.6.18-1.18.18-1.8a30.83,30.83,0,0,0-61.59-2h-.16l-7.35,117.8a182,182,0,0,1,64.15,96.58C364.15,213.72,399,190,439.25,190c56.85,0,102.93,47.12,102.93,105.25S496.1,400.48,439.25,400.48,336.33,353.36,336.33,295.23h-.05c0-4.42-.09-8.87-.45-13.37C329.54,202,264.83,137.29,185,131A164.82,164.82,0,0,0,7.36,308.6c6.3,79.86,71,144.57,150.87,150.86A164.26,164.26,0,0,0,266.34,430l-7.67,122.76h.15c0,.61-.18,1.18-.18,1.8a30.83,30.83,0,0,0,61.59,2h.16l7.35-117.79a182,182,0,0,1-64.16-96.57c-16.9,34.5-51.69,58.23-92,58.23-56.85,0-102.93-47.12-102.93-105.25S114.75,190,171.6,190,274.52,237.1,274.52,295.23h.05c0,4.42.09,8.87.45,13.37,6.29,79.86,71,144.57,150.86,150.86A164.81,164.81,0,0,0,603.49,281.86Z"/></svg>